<svg id="Réteg_1" data-name="Réteg 1" xmlns="http://www.w3.org/2000/svg" viewBox="0 0 512 511.98"><defs><style>.cls-1{fill:#fff;fill-rule:evenodd;}</style></defs><title>found</title><path class="cls-1" d="M249,61.27a10,10,0,0,0-4.49,19.44A136,136,0,0,1,310,117.13c53.19,53.19,53.19,139.73,0,192.91s-139.72,53.19-192.91,0-53.18-139.72,0-192.91A135.06,135.06,0,0,1,170.84,84a10,10,0,0,0-6.23-19A154.67,154.67,0,0,0,103,103c-61,61-61,160.16,0,221.12a156.51,156.51,0,0,0,221.12,0c61-61,61-160.16,0-221.12A156,156,0,0,0,249,61.27Z" transform="translate(0 0)"/><path class="cls-1" d="M498.41,432.71,393.88,328.18a213.46,213.46,0,1,0-65.7,65.7L432.71,498.41a46.46,46.46,0,1,0,65.7-65.7Zm-14.1,51.6a26.63,26.63,0,0,1-37.5,0L336.51,374a10,10,0,0,0-12.74-1.14A193.74,193.74,0,0,1,76.66,350.51c-75.5-75.5-75.5-198.35,0-273.85a193.66,193.66,0,0,1,296.2,247.11A10,10,0,0,0,374,336.51l110.31,110.3A26.56,26.56,0,0,1,484.31,484.31Z" transform="translate(0 0)"/><path class="cls-1" d="M207,77.33a10,10,0,1,0-10-10A10,10,0,0,0,207,77.33Z" transform="translate(0 0)"/></svg>