<svg id="Capa_1" data-name="Capa 1" xmlns="http://www.w3.org/2000/svg" viewBox="0 0 55 51"><defs><style>.cls-1{fill:#fff;}</style></defs><title>map</title><path class="cls-1" d="M54.58,2.19a1,1,0,0,0-.9-.14L36,8,19.23,4a.56.56,0,0,0-.13,0,.86.86,0,0,0-.32,0L.78,8A1,1,0,0,0,0,9V52a1,1,0,0,0,.38.78A1,1,0,0,0,1,53l.22,0L19,49l16.81,3H36a1,1,0,0,0,.35-.06h0l18-7A1,1,0,0,0,55,44V3A1,1,0,0,0,54.58,2.19ZM2,9.8,18,6.25v41L2,50.75ZM20,6.26,35,9.79v40L20,47.16ZM53,43.32,37,49.54V9.72L53,4.39Z" transform="translate(0 -2)"/></svg>