<svg id="Réteg_1" data-name="Réteg 1" xmlns="http://www.w3.org/2000/svg" viewBox="0 0 329.38 211.88"><defs><style>.cls-1{fill:none;stroke:#fff;stroke-linecap:round;stroke-linejoin:round;stroke-width:5px;}</style></defs><title>MapSizes</title><path class="cls-1" d="M932.05,436.33h155.63a7.31,7.31,0,0,1,6,11.49L982,608.34a25.41,25.41,0,0,1-20.83,10.88H805.52a7.31,7.31,0,0,1-6-11.49l111.7-160.52A25.36,25.36,0,0,1,932.05,436.33Z" transform="translate(-795.7 -433.83)"/><line class="cls-1" x1="2.5" y1="197.89" x2="2.5" y2="209.38"/><line class="cls-1" x1="174.05" y1="197.89" x2="174.05" y2="209.38"/><line class="cls-1" x1="2.5" y1="203.63" x2="174.05" y2="203.63"/><line class="cls-1" x1="192.14" y1="182.06" x2="201.51" y2="188.72"/><line class="cls-1" x1="317.51" y1="5.22" x2="326.88" y2="11.88"/><line class="cls-1" x1="196.82" y1="185.39" x2="322.2" y2="8.55"/></svg>