<svg id="Layer_1" data-name="Layer 1" xmlns="http://www.w3.org/2000/svg" viewBox="0 0 511.14 512"><defs><style>.cls-1{fill:#fff;}</style></defs><title>mine</title><path class="cls-1" d="M496.88,1A21,21,0,0,0,470.5,14.69c-8.95,28.31-34,40.66-51.11,45.9L397.86,39.06a21,21,0,0,0-29.73,0L321.21,86c-82.3-39.51-185.43-26-255.14,43.7a223.8,223.8,0,0,0,0,316.69c87.51,87.51,229.16,87.53,316.68,0,69.62-69.61,83.26-172.75,43.71-255.14l46.91-46.92a21,21,0,0,0,0-29.73L451.79,93c22.64-10.82,47.66-30.41,58.8-65.63A21,21,0,0,0,496.88,1ZM353,416.63c-70.92,70.91-186.3,70.91-257.22,0s-70.92-186.31,0-257.22,186.3-70.92,257.22,0S423.94,345.71,353,416.63ZM404,154.2a227.44,227.44,0,0,0-45.77-45.78L383,83.66l45.78,45.78Z" transform="translate(-0.43 0)"/></svg>