<svg id="Réteg_1" data-name="Réteg 1" xmlns="http://www.w3.org/2000/svg" viewBox="0 0 512 512"><defs><style>.cls-1{fill:#fff;}</style></defs><title>remove</title><path class="cls-1" d="M256,512C114.84,512,0,397.16,0,256S114.84,0,256,0,512,114.84,512,256,397.16,512,256,512Zm0-480C132.48,32,32,132.48,32,256S132.48,480,256,480,480,379.52,480,256,379.52,32,256,32Z"/><path class="cls-1" d="M176.81,351.19a16,16,0,0,1-11.31-27.33l158.4-158.4a16,16,0,1,1,22.64,22.64L188.14,346.5A16.05,16.05,0,0,1,176.81,351.19Z"/><path class="cls-1" d="M335.19,351.19a15.91,15.91,0,0,1-11.31-4.69L165.48,188.12a16,16,0,0,1,22.64-22.64l158.4,158.4a16,16,0,0,1-11.33,27.31Z"/></svg>