<svg id="Réteg_1" data-name="Réteg 1" xmlns="http://www.w3.org/2000/svg" viewBox="0 0 401.02 399"><defs><style>.cls-1{fill:#282828;}</style></defs><title>edit</title><path class="cls-1" d="M370.1,251.9a10,10,0,0,0-10,10v88.7a30.09,30.09,0,0,1-30,30H49.9a30.09,30.09,0,0,1-30-30V90.3a30.09,30.09,0,0,1,30-30h88.7a10,10,0,0,0,0-20H49.9A50.06,50.06,0,0,0,0,90.3V350.6a49.91,49.91,0,0,0,49.9,49.9H330.1A49.91,49.91,0,0,0,380,350.6V261.9A9.88,9.88,0,0,0,370.1,251.9Z" transform="translate(0 -1.5)"/><path class="cls-1" d="M376.1,14.7a44.9,44.9,0,0,0-63.6,0L134.4,192.9a10.32,10.32,0,0,0-2.6,4.4l-23.4,84.6a9.7,9.7,0,0,0,2.6,9.7,10.22,10.22,0,0,0,9.7,2.6l84.6-23.4a9.41,9.41,0,0,0,4.4-2.6L387.9,90a45.09,45.09,0,0,0,0-63.6ZM156.2,199.3,302,53.5l47,47L203.2,246.4Zm-9.4,18.9,37.6,37.6-52,14.4ZM373.7,75.8,363.1,86.4l-47-47,10.6-10.6a25,25,0,0,1,35.3,0l11.7,11.7A24.87,24.87,0,0,1,373.7,75.8Z" transform="translate(0 -1.5)"/></svg>