<svg id="Capa_1" data-name="Capa 1" xmlns="http://www.w3.org/2000/svg" viewBox="0 0 55 51"><defs><style>.cls-1{fill:#282828;}</style></defs><title>map</title><path class="cls-1" d="M54.58.19a1,1,0,0,0-.9-.14L36,6,19.23,2a.29.29,0,0,0-.13,0,.86.86,0,0,0-.32,0L.78,6A1,1,0,0,0,0,7V50a1,1,0,0,0,1,1h.22L19,47l16.81,3H36a1,1,0,0,0,.35-.06h0l18-7A1,1,0,0,0,55,42V1A1,1,0,0,0,54.58.19ZM2,7.8,18,4.25v41L2,48.75ZM20,4.26,35,7.79v40L20,45.16ZM53,41.32,37,47.54V7.72L53,2.39Z" transform="translate(0 0)"/></svg>