<svg id="Capa_1" data-name="Capa 1" xmlns="http://www.w3.org/2000/svg" viewBox="0 0 439.21 458.6"><defs><style>.cls-1{fill:#282828;}</style></defs><title>refresh</title><path class="cls-1" d="M436.19,202a17.07,17.07,0,0,0-33.71,5.38.63.63,0,0,0,0,.3C419.92,309.94,351.06,407,248.75,424.35S49.41,372.88,32,270.57,83.54,71.23,185.82,53.85a187.91,187.91,0,0,1,170.06,58.36L280.27,137.4A17.08,17.08,0,0,0,269.46,159h0A17.08,17.08,0,0,0,291,169.81h0l102.4-34.14a17.06,17.06,0,0,0,11.67-16.19V17.07A17.07,17.07,0,0,0,371,16.24c0,.28,0,.55,0,.83V79.41C283.1-4.18,144.08-.7,60.54,87.19S-19.63,314.1,68.27,397.7s226.91,80.11,310.51-7.78A219.65,219.65,0,0,0,436.19,202Z" transform="translate(-0.05 0.41)"/></svg>