<svg id="Capa_1" data-name="Capa 1" xmlns="http://www.w3.org/2000/svg" viewBox="0 0 48 49"><defs><style>.cls-1{fill:#282828;}</style></defs><title>save</title><path class="cls-1" d="M39.41,0H0V49H48V8.59ZM35,2V16H11V2ZM9,47V28H38V47Zm37,0H40V26H7V47H2V2H9V18H37V2h1.59L46,9.41Z"/><path class="cls-1" d="M13,33h7a1,1,0,0,0,0-2H13a1,1,0,0,0,0,2Z"/><path class="cls-1" d="M23,35H13a1,1,0,0,0,0,2H23a1,1,0,0,0,0-2Z"/><path class="cls-1" d="M25.29,35.29a1,1,0,0,0,0,1.41h0A1,1,0,1,0,26,35,1,1,0,0,0,25.29,35.29Z"/><path class="cls-1" d="M33,4H27V14h6Zm-2,8H29V6h2Z"/></svg>